<svg width="68" height="56" viewBox="0 0 68 56" fill="none" xmlns="http://www.w3.org/2000/svg">
<path d="M42.0005 54.3893C40.809 55.5807 38.9557 55.5807 37.8966 54.3893L31.6747 48.1673C30.4832 46.9759 30.4832 45.1225 31.6747 44.0635L40.2795 35.4586H3.87442C2.28584 35.4586 0.962013 34.1348 0.962013 32.5462V23.6766C0.962013 22.0881 2.28584 20.7642 3.87442 20.7642H40.2795L31.6747 12.1594C30.4832 10.968 30.4832 9.1146 31.6747 8.05555L37.8966 1.83358C39.0881 0.642143 40.9414 0.642143 42.0005 1.83358L66.2264 25.9271C67.4179 27.1186 67.4179 28.9719 66.2264 30.031L42.0005 54.3893Z" fill="#E7DFCC"/>
</svg>
