<svg width="67" height="56" viewBox="0 0 67 56" fill="none" xmlns="http://www.w3.org/2000/svg">
<path d="M25.3395 54.3893C26.531 55.5807 28.3843 55.5807 29.4434 54.3893L35.6653 48.1673C36.8568 46.9759 36.8568 45.1225 35.6653 44.0635L27.0605 35.4586H63.4656C65.0542 35.4586 66.378 34.1348 66.378 32.5462V23.6766C66.378 22.0881 65.0542 20.7642 63.4656 20.7642H27.0605L35.6653 12.1594C36.8568 10.968 36.8568 9.1146 35.6653 8.05555L29.4434 1.83358C28.2519 0.642143 26.3986 0.642143 25.3395 1.83358L1.11358 25.9271C-0.0778587 27.1186 -0.0778587 28.9719 1.11358 30.031L25.3395 54.3893Z" fill="#E7DFCC"/>
</svg>
